# xmcd
#
# Track frame offsets:
#	150
#	13043
#	30976
#	50465
#	66231
#	78681
#	90898
#	113106
#	149127
#	163758
#	180242
#
# Disc length: 2676 seconds
#
# Revision: 1
# Processed by: cddbd v1.5.2PL0 Copyright (c) Steve Scherf et al.
# Submitted via: audiograbber 1.83.01
#
DISCID=890a720b
DTITLE=The Bluesmasters - Featuring Mickey Thomas
DYEAR=1900
DGENRE=
TTITLE0=Cherry Red
TTITLE1=Rock Me Baby
TTITLE2=Fooled Around And Fell In Love
TTITLE3=Sick And Tired
TTITLE4=I'd Rather Go Blind
TTITLE5=Can't Get No Grindin'
TTITLE6=Walkin' Blues
TTITLE7=Third Degree
TTITLE8=Get Your Business Straight
TTITLE9=Over Yonder Wall
TTITLE10=Long Time
EXTD=
EXTT0=
EXTT1=
EXTT2=
EXTT3=
EXTT4=
EXTT5=
EXTT6=
EXTT7=
EXTT8=
EXTT9=
EXTT10=
PLAYORDER=
